<svg width="85" height="65" fill="none" xmlns="http://www.w3.org/2000/svg"><path d="M61.108 46.2H43.65a2.083 2.083 0 0 1 0-4.167h17.458a2.083 2.083 0 0 1 0 4.167ZM72.858 44.908a1.625 1.625 0 0 1-.75 0 2.04 2.04 0 0 1-1.208-2.666l9.917-26.5a2.083 2.083 0 0 1 2.666-1.209 2.167 2.167 0 0 1 1.25 2.709l-9.916 26.375a2.168 2.168 0 0 1-1.959 1.291ZM30.317 45.7a2.041 2.041 0 0 1-1.959-1.417L15.275 4.533h-12.5A2.083 2.083 0 0 1 .692 2.45 2.125 2.125 0 0 1 2.775.367h14a2.125 2.125 0 0 1 1.958 1.416L32.442 42.95a2.042 2.042 0 0 1-1.292 2.625c-.265.104-.55.147-.833.125Z" fill="#FF4343"/><path d="M36.733 64.45a12.5 12.5 0 1 1 0-24.998 12.5 12.5 0 0 1 0 24.998Zm0-20.833a8.334 8.334 0 1 0 0 16.668 8.334 8.334 0 0 0 0-16.668ZM68.025 64.45a12.5 12.5 0 1 1 0-25 12.5 12.5 0 0 1 0 25Zm0-20.833a8.334 8.334 0 1 0 0 16.668 8.334 8.334 0 0 0 0-16.668Z" fill="#FF4343"/></svg>