<svg width="85" height="77" fill="none" xmlns="http://www.w3.org/2000/svg"><path d="M69.268 60.617H15.685A15.584 15.584 0 0 1 .1 45.033V15.867A15.625 15.625 0 0 1 15.685.075h53.583a15.625 15.625 0 0 1 15.584 15.583v29.375a15.584 15.584 0 0 1-15.584 15.584ZM15.685 4.242A11.417 11.417 0 0 0 4.268 15.658v29.375A11.417 11.417 0 0 0 15.685 56.45h53.583a11.417 11.417 0 0 0 11.417-11.417V15.867A11.415 11.415 0 0 0 69.268 4.242H15.685Z" fill="#FF4343"/><path d="M82.767 44.783H2.184A2.125 2.125 0 0 1 .101 42.7a2.083 2.083 0 0 1 2.083-2.083h80.583a2.083 2.083 0 1 1 0 4.166ZM42.42 76.742a2.083 2.083 0 0 1-2.083-2.084V58.533a2.083 2.083 0 1 1 4.167 0v16.125a2.083 2.083 0 0 1-2.083 2.084Z" fill="#FF4343"/><path d="M66.494 76.742H18.16a2.083 2.083 0 0 1 0-4.167h48.334a2.083 2.083 0 1 1 0 4.167Z" fill="#FF4343"/></svg>